<svg preserveAspectRatio="none" overflow="visible" style="display: block;" width="31.8854" height="34.8596" viewBox="0 0 31.8854 34.8596" fill="none" xmlns="http://www.w3.org/2000/svg">
<g id="Group">
<path id="Vector" d="M18.0869 0.000111272H13.7984V34.8588H18.0869C25.707 34.8589 31.8853 27.0551 31.8853 17.4295C31.8853 7.80384 25.707 0.000111272 18.0869 0.000111272Z" fill="url(#paint0_linear_0_552)"/>
<path id="Vector_2" d="M18.0869 0.000111272H13.7984V34.8588H18.0869C25.707 34.8589 31.8853 27.0551 31.8853 17.4295C31.8853 7.80384 25.707 0.000111272 18.0869 0.000111272Z" fill="url(#paint1_linear_0_552)"/>
<path id="Vector_3" d="M13.7984 34.8586H18.087C25.7071 34.8586 31.8854 27.0549 31.8854 17.4292C31.8854 16.5769 31.836 15.7393 31.7425 14.9198H13.7984V34.8586Z" fill="url(#paint2_linear_0_552)"/>
<g id="Group_2">
<path id="Vector_4" d="M13.7982 34.8586C21.4188 34.8586 27.5965 27.0553 27.5965 17.4294C27.5965 7.80347 21.4188 0.000134698 13.7982 0.000134698C6.17768 0.000134698 0 7.80347 0 17.4294C0 27.0553 6.17768 34.8586 13.7982 34.8586Z" fill="url(#paint3_linear_0_552)"/>
<path id="Vector_5" d="M13.9452 16.7079H0.0127359C0.00501719 16.9474 4.47105e-05 17.1879 4.47105e-05 17.4298C4.47105e-05 27.0557 6.17772 34.859 13.7983 34.859C18.3765 34.859 22.4331 32.0418 24.9431 27.7059L13.9452 16.7079Z" fill="url(#paint4_linear_0_552)"/>
<path id="Vector_6" d="M4.47105e-05 17.4295C4.47105e-05 27.0555 6.17772 34.8588 13.7983 34.8588C21.4188 34.8588 27.5965 27.0555 27.5965 17.4295C27.5965 17.0809 27.5875 16.735 27.5715 16.3914H0.0251305C0.00909921 16.735 4.47105e-05 17.0809 4.47105e-05 17.4295Z" fill="url(#paint5_linear_0_552)"/>
<path id="Vector_7" d="M10.8256 16.3914H0.0251629C0.00920588 16.735 0.000151347 17.0809 0.000151347 17.4295C0.000151347 25.7662 4.63415 32.7344 10.8256 34.4519V16.3914Z" fill="url(#paint6_linear_0_552)"/>
<path id="Vector_8" d="M13.7983 0.00103854C13.0236 0.00103854 12.2642 0.0829761 11.5242 0.238019V34.6226C12.2642 34.7776 13.0237 34.8596 13.7983 34.8596C21.4189 34.8596 27.5966 27.0562 27.5966 17.4303C27.5966 7.80447 21.4189 0.00103854 13.7983 0.00103854Z" fill="url(#paint7_linear_0_552)"/>
<path id="Vector_9" d="M13.7983 3.1114C7.53838 3.1114 2.46323 9.52227 2.46323 17.4295C2.46323 25.3368 7.53838 31.7477 13.7983 31.7477C20.0582 31.7477 25.1334 25.3368 25.1334 17.4295C25.1334 9.52227 20.0583 3.1114 13.7983 3.1114ZM13.7983 28.8845C8.79001 28.8845 4.72987 23.7555 4.72987 17.4295C4.72987 11.1036 8.79001 5.97454 13.7983 5.97454C18.8066 5.97454 22.8667 11.1035 22.8667 17.4295C22.8667 23.7556 18.8066 28.8845 13.7983 28.8845Z" fill="url(#paint8_linear_0_552)"/>
<path id="Vector_10" d="M13.7982 9.08047C10.1477 9.08047 7.18913 12.8183 7.18913 17.4292C7.18913 22.0401 10.1477 25.7779 13.7982 25.7779C17.4488 25.7779 20.4074 22.0401 20.4074 17.4292C20.4074 12.8183 17.4488 9.08047 13.7982 9.08047ZM13.7982 22.4318C11.6107 22.4318 9.83763 20.192 9.83763 17.4292C9.83763 14.6664 11.6106 12.4266 13.7982 12.4266C15.9858 12.4266 17.7588 14.6664 17.7588 17.4292C17.7588 20.192 15.9858 22.4318 13.7982 22.4318Z" fill="url(#paint9_linear_0_552)"/>
<path id="Vector_11" d="M17.21 19.9728C16.5205 21.4453 15.2507 22.4324 13.7982 22.4324C11.611 22.4324 9.83789 20.1925 9.83789 17.4301C9.83789 17.1844 9.852 16.9432 9.87871 16.7079H7.21426C7.19719 16.9462 7.18903 17.1866 7.18903 17.4301C7.18903 22.0413 10.1481 25.7789 13.7982 25.7789C16.093 25.7789 18.114 24.3027 19.2978 22.0606L17.21 19.9728Z" fill="url(#paint10_linear_0_552)"/>
</g>
</g>
<defs>
<linearGradient id="paint0_linear_0_552" x1="22.8418" y1="1.38451" x2="22.8418" y2="35.3532" gradientUnits="userSpaceOnUse">
<stop stop-color="#FFA1AE"/>
<stop offset="1" stop-color="#FF4565"/>
</linearGradient>
<linearGradient id="paint1_linear_0_552" x1="22.7917" y1="19.9156" x2="31.1676" y2="23.5801" gradientUnits="userSpaceOnUse">
<stop stop-color="#FE0364" stop-opacity="0"/>
<stop offset="0.2343" stop-color="#F90362" stop-opacity="0.234"/>
<stop offset="0.5173" stop-color="#EA035B" stop-opacity="0.517"/>
<stop offset="0.8243" stop-color="#D20250" stop-opacity="0.824"/>
<stop offset="1" stop-color="#C00148"/>
</linearGradient>
<linearGradient id="paint2_linear_0_552" x1="22.8419" y1="18.3978" x2="22.8419" y2="33.8094" gradientUnits="userSpaceOnUse">
<stop stop-color="#FE0364" stop-opacity="0"/>
<stop offset="0.2343" stop-color="#F90362" stop-opacity="0.234"/>
<stop offset="0.5173" stop-color="#EA035B" stop-opacity="0.517"/>
<stop offset="0.8243" stop-color="#D20250" stop-opacity="0.824"/>
<stop offset="1" stop-color="#C00148"/>
</linearGradient>
<linearGradient id="paint3_linear_0_552" x1="3.82716" y1="11.6933" x2="25.465" y2="24.1409" gradientUnits="userSpaceOnUse">
<stop stop-color="#FFA1AE"/>
<stop offset="1" stop-color="#FF4565"/>
</linearGradient>
<linearGradient id="paint4_linear_0_552" x1="12.4447" y1="24.0764" x2="10.4342" y2="17.357" gradientUnits="userSpaceOnUse">
<stop stop-color="#FE0364" stop-opacity="0"/>
<stop offset="0.2343" stop-color="#F90362" stop-opacity="0.234"/>
<stop offset="0.5173" stop-color="#EA035B" stop-opacity="0.517"/>
<stop offset="0.8243" stop-color="#D20250" stop-opacity="0.824"/>
<stop offset="1" stop-color="#C00148"/>
</linearGradient>
<linearGradient id="paint5_linear_0_552" x1="13.7983" y1="26.1634" x2="13.7983" y2="36.1335" gradientUnits="userSpaceOnUse">
<stop stop-color="#FE0364" stop-opacity="0"/>
<stop offset="0.2343" stop-color="#F90362" stop-opacity="0.234"/>
<stop offset="0.5173" stop-color="#EA035B" stop-opacity="0.517"/>
<stop offset="0.8243" stop-color="#D20250" stop-opacity="0.824"/>
<stop offset="1" stop-color="#C00148"/>
</linearGradient>
<linearGradient id="paint6_linear_0_552" x1="6.83102" y1="22.6502" x2="4.64417" y2="20.6396" gradientUnits="userSpaceOnUse">
<stop stop-color="#FE0364" stop-opacity="0"/>
<stop offset="0.2343" stop-color="#F90362" stop-opacity="0.234"/>
<stop offset="0.5173" stop-color="#EA035B" stop-opacity="0.517"/>
<stop offset="0.8243" stop-color="#D20250" stop-opacity="0.824"/>
<stop offset="1" stop-color="#C00148"/>
</linearGradient>
<linearGradient id="paint7_linear_0_552" x1="18.7994" y1="20.7511" x2="26.0411" y2="26.9459" gradientUnits="userSpaceOnUse">
<stop stop-color="#FE0364" stop-opacity="0"/>
<stop offset="0.2343" stop-color="#F90362" stop-opacity="0.234"/>
<stop offset="0.5173" stop-color="#EA035B" stop-opacity="0.517"/>
<stop offset="0.8243" stop-color="#D20250" stop-opacity="0.824"/>
<stop offset="1" stop-color="#C00148"/>
</linearGradient>
<linearGradient id="paint8_linear_0_552" x1="5.60721" y1="12.7175" x2="23.3823" y2="22.9429" gradientUnits="userSpaceOnUse">
<stop stop-color="#F5FBFF"/>
<stop offset="1" stop-color="#DBD5EF"/>
</linearGradient>
<linearGradient id="paint9_linear_0_552" x1="9.02211" y1="14.6816" x2="19.3866" y2="20.644" gradientUnits="userSpaceOnUse">
<stop stop-color="#F5FBFF"/>
<stop offset="1" stop-color="#DBD5EF"/>
</linearGradient>
<linearGradient id="paint10_linear_0_552" x1="13.1974" y1="20.4356" x2="11.9982" y2="16.7672" gradientUnits="userSpaceOnUse">
<stop stop-color="#DBD5EF" stop-opacity="0"/>
<stop offset="0.2853" stop-color="#D9D2EE" stop-opacity="0.285"/>
<stop offset="0.4739" stop-color="#D4C9E9" stop-opacity="0.474"/>
<stop offset="0.6346" stop-color="#CBBAE2" stop-opacity="0.635"/>
<stop offset="0.7795" stop-color="#BFA5D7" stop-opacity="0.78"/>
<stop offset="0.9126" stop-color="#AF8ACA" stop-opacity="0.913"/>
<stop offset="1" stop-color="#A274BF"/>
</linearGradient>
</defs>
</svg>
